# xmcd CD database file
#
# Track frame offsets:
#	150
#	17056
#	32891
#	49959
#	63266
#	75528
#	87492
#	98538
#	113004
#	129543
#	139634
#	154239
#	168761
#	179771
#	195057
#	208505
#	224407
#	241563
#	257047
#	269174
#
# Disc length: 3706 seconds
#
# Revision: 0
# Processed by: cddbd v1.5.1PL0 Copyright (c) Steve Scherf et al.
# Submitted via: Feurio! 1.67 - http://www.feurio.com
#
DISCID=110e7814
DTITLE=Vera Martinova - Kytarova
DYEAR=2004
DGENRE=Blues
TTITLE0=Dam si jedno blues
TTITLE1=Toulavy dziny
TTITLE2=Naruc planejch ruzi
TTITLE3=Ja vim, ze uz me nemilujes
TTITLE4=Dala jsem lasku rekam
TTITLE5=Blanicky rytir
TTITLE6=Studanka
TTITLE7=Cekani
TTITLE8=Ja se stavam vodou
TTITLE9=Laska
TTITLE10=Az na vrcholku hor
TTITLE11=My blues
TTITLE12=Svou karu tlacime kazdy sam
TTITLE13=Placou tvoje modre oci
TTITLE14=Jsou chvile
TTITLE15=Sneni hlavou dolu
TTITLE16=Delfini tanec
TTITLE17=Svitani pod jiznim krizem
TTITLE18=Whakarewarewa
TTITLE19=Stripky
EXTD=
EXTT0=
EXTT1=
EXTT2=
EXTT3=
EXTT4=
EXTT5=
EXTT6=
EXTT7=
EXTT8=
EXTT9=
EXTT10=
EXTT11=
EXTT12=
EXTT13=
EXTT14=
EXTT15=
EXTT16=
EXTT17=
EXTT18=
EXTT19=
PLAYORDER=
